<mxfile host="app.diagrams.net" modified="2024-06-05T09:19:44.391Z" agent="Mozilla/5.0 (Windows NT 10.0; Win64; x64) AppleWebKit/537.36 (KHTML, like Gecko) Chrome/125.0.0.0 Safari/537.36" etag="kfY9uAPipKMWKqFspmV3" version="24.4.13" type="github">
  <diagram id="C5RBs43oDa-KdzZeNtuy" name="Page-1">
    <mxGraphModel dx="1687" dy="5594" grid="1" gridSize="10" guides="1" tooltips="1" connect="1" arrows="1" fold="1" page="1" pageScale="1" pageWidth="827" pageHeight="1169" math="0" shadow="0">
      <root>
        <mxCell id="WIyWlLk6GJQsqaUBKTNV-0" />
        <mxCell id="WIyWlLk6GJQsqaUBKTNV-1" parent="WIyWlLk6GJQsqaUBKTNV-0" />
        <mxCell id="-Nyvp81KzP3HBZppvLe6-5" value="initialisation" style="rounded=1;whiteSpace=wrap;html=1;fontSize=12;glass=0;strokeWidth=1;shadow=0;align=center;labelPosition=center;verticalLabelPosition=top;verticalAlign=bottom;" vertex="1" parent="WIyWlLk6GJQsqaUBKTNV-1">
          <mxGeometry x="900" y="-3420" width="710" height="640" as="geometry" />
        </mxCell>
        <mxCell id="WIyWlLk6GJQsqaUBKTNV-2" value="" style="rounded=0;html=1;jettySize=auto;orthogonalLoop=1;fontSize=11;endArrow=block;endFill=0;endSize=8;strokeWidth=1;shadow=0;labelBackgroundColor=none;edgeStyle=orthogonalEdgeStyle;" parent="WIyWlLk6GJQsqaUBKTNV-1" source="WIyWlLk6GJQsqaUBKTNV-3" target="WIyWlLk6GJQsqaUBKTNV-6" edge="1">
          <mxGeometry relative="1" as="geometry" />
        </mxCell>
        <mxCell id="WIyWlLk6GJQsqaUBKTNV-3" value="mp3 file" style="rounded=1;whiteSpace=wrap;html=1;fontSize=12;glass=0;strokeWidth=1;shadow=0;" parent="WIyWlLk6GJQsqaUBKTNV-1" vertex="1">
          <mxGeometry x="140" y="-3950" width="120" height="40" as="geometry" />
        </mxCell>
        <mxCell id="WIyWlLk6GJQsqaUBKTNV-4" value="Yes" style="rounded=0;html=1;jettySize=auto;orthogonalLoop=1;fontSize=11;endArrow=block;endFill=0;endSize=8;strokeWidth=1;shadow=0;labelBackgroundColor=none;edgeStyle=orthogonalEdgeStyle;" parent="WIyWlLk6GJQsqaUBKTNV-1" source="WIyWlLk6GJQsqaUBKTNV-6" target="WIyWlLk6GJQsqaUBKTNV-10" edge="1">
          <mxGeometry y="20" relative="1" as="geometry">
            <mxPoint as="offset" />
          </mxGeometry>
        </mxCell>
        <mxCell id="WIyWlLk6GJQsqaUBKTNV-5" value="No" style="edgeStyle=orthogonalEdgeStyle;rounded=0;html=1;jettySize=auto;orthogonalLoop=1;fontSize=11;endArrow=block;endFill=0;endSize=8;strokeWidth=1;shadow=0;labelBackgroundColor=none;" parent="WIyWlLk6GJQsqaUBKTNV-1" source="WIyWlLk6GJQsqaUBKTNV-6" target="WIyWlLk6GJQsqaUBKTNV-7" edge="1">
          <mxGeometry y="10" relative="1" as="geometry">
            <mxPoint as="offset" />
          </mxGeometry>
        </mxCell>
        <mxCell id="WIyWlLk6GJQsqaUBKTNV-6" value="Lamp&lt;br&gt;plugged in?" style="rhombus;whiteSpace=wrap;html=1;shadow=0;fontFamily=Helvetica;fontSize=12;align=center;strokeWidth=1;spacing=6;spacingTop=-4;" parent="WIyWlLk6GJQsqaUBKTNV-1" vertex="1">
          <mxGeometry x="150" y="-3860" width="100" height="80" as="geometry" />
        </mxCell>
        <mxCell id="WIyWlLk6GJQsqaUBKTNV-7" value="Plug in lamp" style="rounded=1;whiteSpace=wrap;html=1;fontSize=12;glass=0;strokeWidth=1;shadow=0;" parent="WIyWlLk6GJQsqaUBKTNV-1" vertex="1">
          <mxGeometry x="300" y="-3840" width="120" height="40" as="geometry" />
        </mxCell>
        <mxCell id="WIyWlLk6GJQsqaUBKTNV-8" value="No" style="rounded=0;html=1;jettySize=auto;orthogonalLoop=1;fontSize=11;endArrow=block;endFill=0;endSize=8;strokeWidth=1;shadow=0;labelBackgroundColor=none;edgeStyle=orthogonalEdgeStyle;" parent="WIyWlLk6GJQsqaUBKTNV-1" source="WIyWlLk6GJQsqaUBKTNV-10" target="WIyWlLk6GJQsqaUBKTNV-11" edge="1">
          <mxGeometry x="0.3333" y="20" relative="1" as="geometry">
            <mxPoint as="offset" />
          </mxGeometry>
        </mxCell>
        <mxCell id="WIyWlLk6GJQsqaUBKTNV-9" value="Yes" style="edgeStyle=orthogonalEdgeStyle;rounded=0;html=1;jettySize=auto;orthogonalLoop=1;fontSize=11;endArrow=block;endFill=0;endSize=8;strokeWidth=1;shadow=0;labelBackgroundColor=none;" parent="WIyWlLk6GJQsqaUBKTNV-1" source="WIyWlLk6GJQsqaUBKTNV-10" target="WIyWlLk6GJQsqaUBKTNV-12" edge="1">
          <mxGeometry y="10" relative="1" as="geometry">
            <mxPoint as="offset" />
          </mxGeometry>
        </mxCell>
        <mxCell id="WIyWlLk6GJQsqaUBKTNV-10" value="Bulb&lt;br&gt;burned out?" style="rhombus;whiteSpace=wrap;html=1;shadow=0;fontFamily=Helvetica;fontSize=12;align=center;strokeWidth=1;spacing=6;spacingTop=-4;" parent="WIyWlLk6GJQsqaUBKTNV-1" vertex="1">
          <mxGeometry x="150" y="-3740" width="100" height="80" as="geometry" />
        </mxCell>
        <mxCell id="WIyWlLk6GJQsqaUBKTNV-11" value="Repair Lamp" style="rounded=1;whiteSpace=wrap;html=1;fontSize=12;glass=0;strokeWidth=1;shadow=0;" parent="WIyWlLk6GJQsqaUBKTNV-1" vertex="1">
          <mxGeometry x="140" y="-3600" width="120" height="40" as="geometry" />
        </mxCell>
        <mxCell id="WIyWlLk6GJQsqaUBKTNV-12" value="Replace Bulb" style="rounded=1;whiteSpace=wrap;html=1;fontSize=12;glass=0;strokeWidth=1;shadow=0;" parent="WIyWlLk6GJQsqaUBKTNV-1" vertex="1">
          <mxGeometry x="300" y="-3720" width="120" height="40" as="geometry" />
        </mxCell>
        <mxCell id="-Nyvp81KzP3HBZppvLe6-75" style="edgeStyle=orthogonalEdgeStyle;rounded=0;orthogonalLoop=1;jettySize=auto;html=1;" edge="1" parent="WIyWlLk6GJQsqaUBKTNV-1" source="-Nyvp81KzP3HBZppvLe6-0" target="-Nyvp81KzP3HBZppvLe6-74">
          <mxGeometry relative="1" as="geometry" />
        </mxCell>
        <mxCell id="-Nyvp81KzP3HBZppvLe6-0" value="initialisation" style="rounded=1;whiteSpace=wrap;html=1;fontSize=12;glass=0;strokeWidth=1;shadow=0;" vertex="1" parent="WIyWlLk6GJQsqaUBKTNV-1">
          <mxGeometry x="140" y="-3350" width="120" height="40" as="geometry" />
        </mxCell>
        <mxCell id="-Nyvp81KzP3HBZppvLe6-63" style="edgeStyle=orthogonalEdgeStyle;rounded=0;orthogonalLoop=1;jettySize=auto;html=1;entryX=0.5;entryY=0;entryDx=0;entryDy=0;" edge="1" parent="WIyWlLk6GJQsqaUBKTNV-1" source="-Nyvp81KzP3HBZppvLe6-1" target="-Nyvp81KzP3HBZppvLe6-4">
          <mxGeometry relative="1" as="geometry">
            <Array as="points">
              <mxPoint x="1255" y="-3200" />
              <mxPoint x="1010" y="-3200" />
            </Array>
          </mxGeometry>
        </mxCell>
        <mxCell id="-Nyvp81KzP3HBZppvLe6-65" style="edgeStyle=orthogonalEdgeStyle;rounded=0;orthogonalLoop=1;jettySize=auto;html=1;entryX=0.5;entryY=0;entryDx=0;entryDy=0;" edge="1" parent="WIyWlLk6GJQsqaUBKTNV-1" source="-Nyvp81KzP3HBZppvLe6-1" target="-Nyvp81KzP3HBZppvLe6-53">
          <mxGeometry relative="1" as="geometry">
            <Array as="points">
              <mxPoint x="1255" y="-3200" />
              <mxPoint x="1180" y="-3200" />
            </Array>
          </mxGeometry>
        </mxCell>
        <mxCell id="-Nyvp81KzP3HBZppvLe6-1" value="Filter audio" style="rounded=1;whiteSpace=wrap;html=1;fontSize=12;glass=0;strokeWidth=1;shadow=0;" vertex="1" parent="WIyWlLk6GJQsqaUBKTNV-1">
          <mxGeometry x="1195" y="-3270" width="120" height="40" as="geometry" />
        </mxCell>
        <mxCell id="-Nyvp81KzP3HBZppvLe6-3" style="edgeStyle=orthogonalEdgeStyle;rounded=0;orthogonalLoop=1;jettySize=auto;html=1;entryX=0.5;entryY=0;entryDx=0;entryDy=0;" edge="1" parent="WIyWlLk6GJQsqaUBKTNV-1" source="-Nyvp81KzP3HBZppvLe6-2" target="-Nyvp81KzP3HBZppvLe6-0">
          <mxGeometry relative="1" as="geometry" />
        </mxCell>
        <mxCell id="-Nyvp81KzP3HBZppvLe6-2" value="mp3 file" style="ellipse;whiteSpace=wrap;html=1;" vertex="1" parent="WIyWlLk6GJQsqaUBKTNV-1">
          <mxGeometry x="140" y="-3470" width="120" height="40" as="geometry" />
        </mxCell>
        <mxCell id="-Nyvp81KzP3HBZppvLe6-72" style="edgeStyle=orthogonalEdgeStyle;rounded=0;orthogonalLoop=1;jettySize=auto;html=1;" edge="1" parent="WIyWlLk6GJQsqaUBKTNV-1" source="-Nyvp81KzP3HBZppvLe6-4" target="-Nyvp81KzP3HBZppvLe6-60">
          <mxGeometry relative="1" as="geometry">
            <Array as="points">
              <mxPoint x="1010" y="-3000" />
              <mxPoint x="1260" y="-3000" />
            </Array>
          </mxGeometry>
        </mxCell>
        <mxCell id="-Nyvp81KzP3HBZppvLe6-4" value="Find tempo of music" style="rounded=1;whiteSpace=wrap;html=1;fontSize=12;glass=0;strokeWidth=1;shadow=0;" vertex="1" parent="WIyWlLk6GJQsqaUBKTNV-1">
          <mxGeometry x="950" y="-3120" width="120" height="40" as="geometry" />
        </mxCell>
        <mxCell id="-Nyvp81KzP3HBZppvLe6-71" style="edgeStyle=orthogonalEdgeStyle;rounded=0;orthogonalLoop=1;jettySize=auto;html=1;" edge="1" parent="WIyWlLk6GJQsqaUBKTNV-1" source="-Nyvp81KzP3HBZppvLe6-53" target="-Nyvp81KzP3HBZppvLe6-60">
          <mxGeometry relative="1" as="geometry">
            <Array as="points">
              <mxPoint x="1180" y="-3000" />
              <mxPoint x="1260" y="-3000" />
            </Array>
          </mxGeometry>
        </mxCell>
        <mxCell id="-Nyvp81KzP3HBZppvLe6-53" value="Find recurring sections of music" style="rounded=1;whiteSpace=wrap;html=1;fontSize=12;glass=0;strokeWidth=1;shadow=0;" vertex="1" parent="WIyWlLk6GJQsqaUBKTNV-1">
          <mxGeometry x="1120" y="-3120" width="120" height="40" as="geometry" />
        </mxCell>
        <mxCell id="-Nyvp81KzP3HBZppvLe6-66" style="edgeStyle=orthogonalEdgeStyle;rounded=0;orthogonalLoop=1;jettySize=auto;html=1;exitX=0.5;exitY=1;exitDx=0;exitDy=0;" edge="1" parent="WIyWlLk6GJQsqaUBKTNV-1" source="-Nyvp81KzP3HBZppvLe6-1" target="-Nyvp81KzP3HBZppvLe6-54">
          <mxGeometry relative="1" as="geometry">
            <Array as="points">
              <mxPoint x="1255" y="-3200" />
              <mxPoint x="1350" y="-3200" />
            </Array>
          </mxGeometry>
        </mxCell>
        <mxCell id="-Nyvp81KzP3HBZppvLe6-70" style="edgeStyle=orthogonalEdgeStyle;rounded=0;orthogonalLoop=1;jettySize=auto;html=1;entryX=0.5;entryY=0;entryDx=0;entryDy=0;" edge="1" parent="WIyWlLk6GJQsqaUBKTNV-1" source="-Nyvp81KzP3HBZppvLe6-54" target="-Nyvp81KzP3HBZppvLe6-60">
          <mxGeometry relative="1" as="geometry">
            <Array as="points">
              <mxPoint x="1360" y="-3000" />
              <mxPoint x="1260" y="-3000" />
            </Array>
          </mxGeometry>
        </mxCell>
        <mxCell id="-Nyvp81KzP3HBZppvLe6-54" value="Detect peaks in audio" style="rounded=1;whiteSpace=wrap;html=1;fontSize=12;glass=0;strokeWidth=1;shadow=0;" vertex="1" parent="WIyWlLk6GJQsqaUBKTNV-1">
          <mxGeometry x="1290" y="-3120" width="120" height="40" as="geometry" />
        </mxCell>
        <mxCell id="-Nyvp81KzP3HBZppvLe6-62" style="edgeStyle=orthogonalEdgeStyle;rounded=0;orthogonalLoop=1;jettySize=auto;html=1;" edge="1" parent="WIyWlLk6GJQsqaUBKTNV-1" source="-Nyvp81KzP3HBZppvLe6-57" target="-Nyvp81KzP3HBZppvLe6-1">
          <mxGeometry relative="1" as="geometry" />
        </mxCell>
        <mxCell id="-Nyvp81KzP3HBZppvLe6-57" value="Parametre :&lt;br&gt;y -&amp;gt;&lt;div&gt;sr -&amp;gt;&lt;br&gt;&lt;div&gt;&lt;div&gt;&lt;br&gt;&lt;/div&gt;&lt;/div&gt;&lt;/div&gt;" style="ellipse;whiteSpace=wrap;html=1;" vertex="1" parent="WIyWlLk6GJQsqaUBKTNV-1">
          <mxGeometry x="1195" y="-3390" width="120" height="80" as="geometry" />
        </mxCell>
        <mxCell id="-Nyvp81KzP3HBZppvLe6-67" style="edgeStyle=orthogonalEdgeStyle;rounded=0;orthogonalLoop=1;jettySize=auto;html=1;exitX=0.5;exitY=1;exitDx=0;exitDy=0;" edge="1" parent="WIyWlLk6GJQsqaUBKTNV-1" source="-Nyvp81KzP3HBZppvLe6-1" target="-Nyvp81KzP3HBZppvLe6-58">
          <mxGeometry relative="1" as="geometry">
            <Array as="points">
              <mxPoint x="1255" y="-3200" />
              <mxPoint x="1520" y="-3200" />
            </Array>
          </mxGeometry>
        </mxCell>
        <mxCell id="-Nyvp81KzP3HBZppvLe6-68" style="edgeStyle=orthogonalEdgeStyle;rounded=0;orthogonalLoop=1;jettySize=auto;html=1;" edge="1" parent="WIyWlLk6GJQsqaUBKTNV-1" source="-Nyvp81KzP3HBZppvLe6-58" target="-Nyvp81KzP3HBZppvLe6-59">
          <mxGeometry relative="1" as="geometry" />
        </mxCell>
        <mxCell id="-Nyvp81KzP3HBZppvLe6-58" value="Root mean squared values of the audio spectorgram" style="rounded=1;whiteSpace=wrap;html=1;fontSize=12;glass=0;strokeWidth=1;shadow=0;" vertex="1" parent="WIyWlLk6GJQsqaUBKTNV-1">
          <mxGeometry x="1460" y="-3170" width="120" height="40" as="geometry" />
        </mxCell>
        <mxCell id="-Nyvp81KzP3HBZppvLe6-69" style="edgeStyle=orthogonalEdgeStyle;rounded=0;orthogonalLoop=1;jettySize=auto;html=1;entryX=0.5;entryY=0;entryDx=0;entryDy=0;" edge="1" parent="WIyWlLk6GJQsqaUBKTNV-1" source="-Nyvp81KzP3HBZppvLe6-59" target="-Nyvp81KzP3HBZppvLe6-60">
          <mxGeometry relative="1" as="geometry">
            <Array as="points">
              <mxPoint x="1520" y="-3000" />
              <mxPoint x="1260" y="-3000" />
            </Array>
          </mxGeometry>
        </mxCell>
        <mxCell id="-Nyvp81KzP3HBZppvLe6-59" value="smooth curve" style="rounded=1;whiteSpace=wrap;html=1;fontSize=12;glass=0;strokeWidth=1;shadow=0;" vertex="1" parent="WIyWlLk6GJQsqaUBKTNV-1">
          <mxGeometry x="1460" y="-3080" width="120" height="40" as="geometry" />
        </mxCell>
        <mxCell id="-Nyvp81KzP3HBZppvLe6-60" value="returns :&amp;nbsp;&lt;div&gt;bpms -&amp;gt;&lt;br&gt;musical_sections&lt;br&gt;onset_times&lt;br&gt;rms&lt;/div&gt;" style="ellipse;whiteSpace=wrap;html=1;" vertex="1" parent="WIyWlLk6GJQsqaUBKTNV-1">
          <mxGeometry x="1148.75" y="-2930" width="222.5" height="130" as="geometry" />
        </mxCell>
        <mxCell id="-Nyvp81KzP3HBZppvLe6-64" style="edgeStyle=orthogonalEdgeStyle;rounded=0;orthogonalLoop=1;jettySize=auto;html=1;exitX=0.5;exitY=1;exitDx=0;exitDy=0;" edge="1" parent="WIyWlLk6GJQsqaUBKTNV-1" source="-Nyvp81KzP3HBZppvLe6-1" target="-Nyvp81KzP3HBZppvLe6-1">
          <mxGeometry relative="1" as="geometry" />
        </mxCell>
        <mxCell id="-Nyvp81KzP3HBZppvLe6-74" value="Calculate measure time" style="rounded=1;whiteSpace=wrap;html=1;fontSize=12;glass=0;strokeWidth=1;shadow=0;" vertex="1" parent="WIyWlLk6GJQsqaUBKTNV-1">
          <mxGeometry x="140" y="-3240" width="120" height="40" as="geometry" />
        </mxCell>
        <mxCell id="-Nyvp81KzP3HBZppvLe6-76" value="get onsets that are within measure time" style="rounded=1;whiteSpace=wrap;html=1;fontSize=12;glass=0;strokeWidth=1;shadow=0;" vertex="1" parent="WIyWlLk6GJQsqaUBKTNV-1">
          <mxGeometry x="140" y="-3100" width="120" height="40" as="geometry" />
        </mxCell>
        <mxCell id="-Nyvp81KzP3HBZppvLe6-77" value="generate notes onto array" style="rounded=1;whiteSpace=wrap;html=1;fontSize=12;glass=0;strokeWidth=1;shadow=0;" vertex="1" parent="WIyWlLk6GJQsqaUBKTNV-1">
          <mxGeometry x="140" y="-3000" width="120" height="40" as="geometry" />
        </mxCell>
        <mxCell id="-Nyvp81KzP3HBZppvLe6-97" value="generate beats" style="rounded=1;whiteSpace=wrap;html=1;fontSize=12;glass=0;strokeWidth=1;shadow=0;align=center;labelPosition=center;verticalLabelPosition=top;verticalAlign=bottom;" vertex="1" parent="WIyWlLk6GJQsqaUBKTNV-1">
          <mxGeometry x="905" y="-4600" width="1375" height="990" as="geometry" />
        </mxCell>
        <mxCell id="-Nyvp81KzP3HBZppvLe6-100" value="Generate beats &#39;randomly&#39; for measure" style="rounded=1;whiteSpace=wrap;html=1;fontSize=12;glass=0;strokeWidth=1;shadow=0;" vertex="1" parent="WIyWlLk6GJQsqaUBKTNV-1">
          <mxGeometry x="1000" y="-4240" width="120" height="40" as="geometry" />
        </mxCell>
        <mxCell id="-Nyvp81KzP3HBZppvLe6-133" style="edgeStyle=orthogonalEdgeStyle;rounded=0;orthogonalLoop=1;jettySize=auto;html=1;entryX=0.5;entryY=0;entryDx=0;entryDy=0;" edge="1" parent="WIyWlLk6GJQsqaUBKTNV-1" source="-Nyvp81KzP3HBZppvLe6-109" target="-Nyvp81KzP3HBZppvLe6-121">
          <mxGeometry relative="1" as="geometry" />
        </mxCell>
        <mxCell id="-Nyvp81KzP3HBZppvLe6-134" style="edgeStyle=orthogonalEdgeStyle;rounded=0;orthogonalLoop=1;jettySize=auto;html=1;" edge="1" parent="WIyWlLk6GJQsqaUBKTNV-1" source="-Nyvp81KzP3HBZppvLe6-109" target="-Nyvp81KzP3HBZppvLe6-117">
          <mxGeometry relative="1" as="geometry" />
        </mxCell>
        <mxCell id="-Nyvp81KzP3HBZppvLe6-135" style="edgeStyle=orthogonalEdgeStyle;rounded=0;orthogonalLoop=1;jettySize=auto;html=1;entryX=0.5;entryY=0;entryDx=0;entryDy=0;" edge="1" parent="WIyWlLk6GJQsqaUBKTNV-1" source="-Nyvp81KzP3HBZppvLe6-109" target="-Nyvp81KzP3HBZppvLe6-123">
          <mxGeometry relative="1" as="geometry" />
        </mxCell>
        <mxCell id="-Nyvp81KzP3HBZppvLe6-109" value="Parametre :&lt;br&gt;y -&amp;gt;&lt;div&gt;sr -&amp;gt;&lt;br&gt;&lt;div&gt;&lt;div&gt;&lt;br&gt;&lt;/div&gt;&lt;/div&gt;&lt;/div&gt;" style="ellipse;whiteSpace=wrap;html=1;" vertex="1" parent="WIyWlLk6GJQsqaUBKTNV-1">
          <mxGeometry x="1460" y="-4570" width="120" height="80" as="geometry" />
        </mxCell>
        <mxCell id="-Nyvp81KzP3HBZppvLe6-115" value="returns :&amp;nbsp;&lt;div&gt;bpms -&amp;gt;&lt;br&gt;musical_sections&lt;br&gt;onset_times&lt;br&gt;rms&lt;/div&gt;" style="ellipse;whiteSpace=wrap;html=1;" vertex="1" parent="WIyWlLk6GJQsqaUBKTNV-1">
          <mxGeometry x="1432" y="-3840" width="222.5" height="130" as="geometry" />
        </mxCell>
        <mxCell id="-Nyvp81KzP3HBZppvLe6-116" style="edgeStyle=orthogonalEdgeStyle;rounded=0;orthogonalLoop=1;jettySize=auto;html=1;exitX=0.5;exitY=1;exitDx=0;exitDy=0;" edge="1" parent="WIyWlLk6GJQsqaUBKTNV-1" source="-Nyvp81KzP3HBZppvLe6-100" target="-Nyvp81KzP3HBZppvLe6-100">
          <mxGeometry relative="1" as="geometry" />
        </mxCell>
        <mxCell id="-Nyvp81KzP3HBZppvLe6-129" style="edgeStyle=orthogonalEdgeStyle;rounded=0;orthogonalLoop=1;jettySize=auto;html=1;entryX=0.5;entryY=0;entryDx=0;entryDy=0;" edge="1" parent="WIyWlLk6GJQsqaUBKTNV-1" source="-Nyvp81KzP3HBZppvLe6-117" target="-Nyvp81KzP3HBZppvLe6-100">
          <mxGeometry relative="1" as="geometry" />
        </mxCell>
        <mxCell id="-Nyvp81KzP3HBZppvLe6-130" style="edgeStyle=orthogonalEdgeStyle;rounded=0;orthogonalLoop=1;jettySize=auto;html=1;" edge="1" parent="WIyWlLk6GJQsqaUBKTNV-1" source="-Nyvp81KzP3HBZppvLe6-117" target="-Nyvp81KzP3HBZppvLe6-120">
          <mxGeometry relative="1" as="geometry" />
        </mxCell>
        <mxCell id="-Nyvp81KzP3HBZppvLe6-117" value="Should we use onset&amp;nbsp;&lt;div&gt;detection times ?&lt;/div&gt;" style="rhombus;whiteSpace=wrap;html=1;" vertex="1" parent="WIyWlLk6GJQsqaUBKTNV-1">
          <mxGeometry x="1060" y="-4420" width="175" height="110" as="geometry" />
        </mxCell>
        <mxCell id="-Nyvp81KzP3HBZppvLe6-120" value="quantise onset beats" style="rounded=1;whiteSpace=wrap;html=1;fontSize=12;glass=0;strokeWidth=1;shadow=0;" vertex="1" parent="WIyWlLk6GJQsqaUBKTNV-1">
          <mxGeometry x="1170" y="-4240" width="120" height="40" as="geometry" />
        </mxCell>
        <mxCell id="-Nyvp81KzP3HBZppvLe6-131" style="edgeStyle=orthogonalEdgeStyle;rounded=0;orthogonalLoop=1;jettySize=auto;html=1;entryX=0.5;entryY=0;entryDx=0;entryDy=0;" edge="1" parent="WIyWlLk6GJQsqaUBKTNV-1" source="-Nyvp81KzP3HBZppvLe6-121" target="-Nyvp81KzP3HBZppvLe6-125">
          <mxGeometry relative="1" as="geometry" />
        </mxCell>
        <mxCell id="-Nyvp81KzP3HBZppvLe6-132" style="edgeStyle=orthogonalEdgeStyle;rounded=0;orthogonalLoop=1;jettySize=auto;html=1;" edge="1" parent="WIyWlLk6GJQsqaUBKTNV-1" source="-Nyvp81KzP3HBZppvLe6-121" target="-Nyvp81KzP3HBZppvLe6-126">
          <mxGeometry relative="1" as="geometry" />
        </mxCell>
        <mxCell id="-Nyvp81KzP3HBZppvLe6-121" value="Are we in a section of&amp;nbsp;&lt;div&gt;music that&amp;nbsp;&lt;span style=&quot;background-color: initial;&quot;&gt;will&amp;nbsp;&lt;/span&gt;&lt;/div&gt;&lt;div&gt;&lt;span style=&quot;background-color: initial;&quot;&gt;appear again ?&lt;/span&gt;&lt;/div&gt;" style="rhombus;whiteSpace=wrap;html=1;" vertex="1" parent="WIyWlLk6GJQsqaUBKTNV-1">
          <mxGeometry x="1410" y="-4420" width="210" height="120" as="geometry" />
        </mxCell>
        <mxCell id="-Nyvp81KzP3HBZppvLe6-123" value="Calculate subdivions of the measure" style="rounded=1;whiteSpace=wrap;html=1;fontSize=12;glass=0;strokeWidth=1;shadow=0;" vertex="1" parent="WIyWlLk6GJQsqaUBKTNV-1">
          <mxGeometry x="1790" y="-4380" width="120" height="40" as="geometry" />
        </mxCell>
        <mxCell id="-Nyvp81KzP3HBZppvLe6-125" value="regenerate the same notes generated for that section" style="rounded=1;whiteSpace=wrap;html=1;fontSize=12;glass=0;strokeWidth=1;shadow=0;" vertex="1" parent="WIyWlLk6GJQsqaUBKTNV-1">
          <mxGeometry x="1381.25" y="-4240" width="120" height="40" as="geometry" />
        </mxCell>
        <mxCell id="-Nyvp81KzP3HBZppvLe6-126" value="store all notes generated for that measure" style="rounded=1;whiteSpace=wrap;html=1;fontSize=12;glass=0;strokeWidth=1;shadow=0;" vertex="1" parent="WIyWlLk6GJQsqaUBKTNV-1">
          <mxGeometry x="1550" y="-4240" width="120" height="40" as="geometry" />
        </mxCell>
      </root>
    </mxGraphModel>
  </diagram>
</mxfile>
